<?xml version="1.0" encoding="UTF-8" standalone="no"?>
<svg
   xmlns:dc="http://purl.org/dc/elements/1.1/"
   xmlns:cc="http://creativecommons.org/ns#"
   xmlns:rdf="http://www.w3.org/1999/02/22-rdf-syntax-ns#"
   xmlns:svg="http://www.w3.org/2000/svg"
   xmlns="http://www.w3.org/2000/svg"
   xmlns:sodipodi="http://sodipodi.sourceforge.net/DTD/sodipodi-0.dtd"
   xmlns:inkscape="http://www.inkscape.org/namespaces/inkscape"
   viewBox="0 0 160 110"
   version="1.1"
   id="svg869"
   sodipodi:docname="yt-text.svg"
   width="160"
   height="110"
   inkscape:version="1.0.2-2 (e86c870879, 2021-01-15)">
  <metadata
     id="metadata875">
    <rdf:RDF>
      <cc:Work
         rdf:about="">
        <dc:format>image/svg+xml</dc:format>
        <dc:type
           rdf:resource="http://purl.org/dc/dcmitype/StillImage" />
        <dc:title></dc:title>
      </cc:Work>
    </rdf:RDF>
  </metadata>
  <defs
     id="defs873" />
  <sodipodi:namedview
     pagecolor="#ffffff"
     bordercolor="#666666"
     borderopacity="1"
     objecttolerance="10"
     gridtolerance="10"
     guidetolerance="10"
     inkscape:pageopacity="0"
     inkscape:pageshadow="2"
     inkscape:window-width="1920"
     inkscape:window-height="1027"
     id="namedview871"
     showgrid="false"
     inkscape:zoom="2.3922764"
     inkscape:cx="246"
     inkscape:cy="55"
     inkscape:window-x="-8"
     inkscape:window-y="22"
     inkscape:window-maximized="1"
     inkscape:current-layer="svg869" />
  <path
     d="M 154.3,17.5 A 19.6,19.6 0 0 0 140.5,3.7 C 128.4,0.4 79.7,0.4 79.7,0.4 79.7,0.4 31,0.5 18.9,3.8 A 19.6,19.6 0 0 0 5.1,17.6 C 1.44,39.1 0.02,71.86 5.2,92.5 A 19.6,19.6 0 0 0 19,106.3 C 31.1,109.6 79.8,109.6 79.8,109.6 79.8,109.6 128.5,109.6 140.6,106.3 A 19.6,19.6 0 0 0 154.4,92.5 C 158.26,70.97 159.45,38.23 154.3,17.5 Z"
     fill="#ff0000"
     id="path856" />
  <path
     fill="#ffffff"
     d="M 64.2,78.4 104.6,55 64.2,31.6 Z"
     id="path858" />
</svg>
